<svg width="55" height="45" viewBox="0 0 55 45" fill="none" xmlns="http://www.w3.org/2000/svg">
<path d="M52.4354 26.4314C31.8558 55.5933 11.9271 40.1678 2.7849 26.3104C1.94206 25.0329 2.89303 23.3913 4.42356 23.3913H50.821C52.402 23.3913 53.3471 25.1396 52.4354 26.4314Z" stroke="#0077B6" stroke-width="4"/>
<path d="M21.0542 2C20.0453 3.19412 18.6329 6.29883 21.0542 9.16472C23.4756 12.0306 22.0631 16.8722 21.0542 18.9348" stroke="#0077B6" stroke-width="4"/>
<path d="M28.1849 2C27.176 3.19412 25.7635 6.29883 28.1849 9.16472C30.6062 12.0306 29.1938 16.8722 28.1849 18.9348" stroke="#0077B6" stroke-width="4"/>
<path d="M35.3152 2C34.3063 3.19412 32.8939 6.29883 35.3152 9.16472C37.7366 12.0306 36.3241 16.8722 35.3152 18.9348" stroke="#0077B6" stroke-width="4"/>
</svg>
