<svg width="1787" height="695" viewBox="0 0 1787 695" fill="none" xmlns="http://www.w3.org/2000/svg">
<path fill-rule="evenodd" clip-rule="evenodd" d="M2.34009 0H1208.5C1298.17 29.8333 1481.3 129.2 1496.5 288C1514.85 479.686 1588.21 510.046 1668.87 543.422L1668.88 543.424C1671.74 544.61 1674.62 545.799 1677.5 547C1761.2 581.875 1792.77 631.146 1784.59 694.318L1786.34 695H1784.5H578.34C488.673 665.167 305.54 565.8 290.34 407C271.992 215.314 198.625 184.954 117.967 151.578C115.1 150.392 112.223 149.201 109.34 148C25.641 113.125 -5.93356 63.8545 2.25028 0.681865L0.5 0H2.34009ZM132 72.5C132 87.1355 120.136 99 105.5 99C90.8645 99 79 87.1355 79 72.5C79 57.8645 90.8645 46 105.5 46C120.136 46 132 57.8645 132 72.5ZM342.5 295C359.345 295 373 281.345 373 264.5C373 247.655 359.345 234 342.5 234C325.655 234 312 247.655 312 264.5C312 281.345 325.655 295 342.5 295ZM460 480.5C460 497.345 446.345 511 429.5 511C412.655 511 399 497.345 399 480.5C399 463.655 412.655 450 429.5 450C446.345 450 460 463.655 460 480.5ZM1350.5 197C1367.34 197 1381 183.345 1381 166.5C1381 149.655 1367.34 136 1350.5 136C1333.66 136 1320 149.655 1320 166.5C1320 183.345 1333.66 197 1350.5 197ZM1459 267.5C1459 284.345 1445.34 298 1428.5 298C1411.66 298 1398 284.345 1398 267.5C1398 250.655 1411.66 237 1428.5 237C1445.34 237 1459 250.655 1459 267.5ZM1523.5 584C1540.34 584 1554 570.345 1554 553.5C1554 536.655 1540.34 523 1523.5 523C1506.66 523 1493 536.655 1493 553.5C1493 570.345 1506.66 584 1523.5 584Z" fill="red"/>
</svg>
