<svg width="1442" height="544" viewBox="0 0 1442 544" fill="none" xmlns="http://www.w3.org/2000/svg">
<path fill-rule="evenodd" clip-rule="evenodd" d="M1148 0H22.9999C19.5499 6.03742 16.0135 11.1548 12.8042 15.799C0.862559 33.0794 -6.55143 43.808 11.8617 71C30.0269 79.8042 35.0007 89.4458 38.3842 96.0046C41.9181 102.855 43.7172 106.342 56.9999 102C61.5855 103.376 66.9534 104.015 72.3657 104.66C90.5587 106.829 109.255 109.057 100.439 139.5C85.062 163.166 92.9993 172.862 100.74 182.318C107.064 190.044 113.257 197.609 106.5 212.5C94.6098 233.622 103.95 238.742 114.257 244.392C124.247 249.868 135.144 255.842 128.5 277.366C123.47 293.661 129.472 301.704 135.818 310.209C143.349 320.302 151.365 331.044 142 357C131.632 385.735 157.145 389.378 187.865 393.763C219.687 398.306 257.096 403.647 266 438.5C261.8 457.867 269.796 461.009 277.497 464.035C286.298 467.493 294.714 470.8 284.102 498C284.102 527.032 310.901 535.778 327.472 541.186C330.594 542.205 333.352 543.105 335.5 544H1442C1441.5 521.833 1430 479.9 1388 489.5C1384.31 488.163 1381.71 483.866 1378.95 479.301C1372.43 468.507 1365 456.212 1340 477.995C1305.5 489.5 1304.36 428.039 1337.44 417C1364.1 414.008 1361.39 407.974 1355.76 395.469C1351.98 387.074 1346.89 375.763 1348.5 360.5C1355.55 336.259 1365.3 331.881 1371.31 329.181C1375.96 327.091 1378.38 326.007 1375.57 317.5C1320.91 307.718 1330.85 289.496 1342.79 267.605C1352.82 249.216 1364.26 228.238 1340 207.5C1311.62 196.583 1314.89 183.092 1318.38 168.692C1322.88 150.115 1327.75 130.026 1265.5 112C1253.73 106.333 1250.84 96.757 1248.18 87.9404C1243.8 73.3898 1240.03 60.9082 1198 71.484C1170.28 68.7213 1167.84 47.8665 1165.68 29.3771C1163.94 14.5107 1162.38 1.17358 1148 0ZM247 346.5C247 366.658 230.658 383 210.5 383C190.342 383 174 366.658 174 346.5C174 326.342 190.342 310 210.5 310C230.658 310 247 326.342 247 346.5ZM1203.5 186C1223.66 186 1240 169.658 1240 149.5C1240 129.342 1223.66 113 1203.5 113C1183.34 113 1167 129.342 1167 149.5C1167 169.658 1183.34 186 1203.5 186Z" fill="#0F1214"/>
</svg>
